<?xml version="1.0" encoding="iso-8859-1"?>
<!-- Uploaded to: SVG Repo, www.svgrepo.com, Generator: SVG Repo Mixer Tools -->
<svg fill="#000000" height="800px" width="800px" version="1.1" id="Capa_1" xmlns="http://www.w3.org/2000/svg" xmlns:xlink="http://www.w3.org/1999/xlink" 
	 viewBox="0 0 476.1 476.1" xml:space="preserve">
<g>
	<g>
		<path d="M5.8,167.9l226,140.7c1.9,1.2,4.1,1.8,6.3,1.8c2.2,0,4.4-0.6,6.3-1.8l226-140.7c3.5-2.2,5.7-6,5.7-10.2
			c0-4.1-2.1-8-5.7-10.2L244.4,6.8c-3.9-2.4-8.8-2.4-12.7,0L5.7,147.5c-3.5,2.2-5.7,6-5.7,10.2C0.1,161.9,2.2,165.7,5.8,167.9z
			 M238.1,31.1l203.3,126.6L238.1,284.3L34.8,157.7L238.1,31.1z" fill="white"/>
		<path d="M464.1,226.1c-3.2,0-6.3,1.3-8.5,3.5s-3.5,5.3-3.5,8.5c0,3.2,1.3,6.3,3.5,8.5s5.3,3.5,8.5,3.5s6.3-1.3,8.5-3.5
			s3.5-5.3,3.5-8.5s-1.3-6.3-3.5-8.5S467.3,226.1,464.1,226.1z" fill="white"/>
		<path d="M420.1,251.4c-5.6,3.5-7.4,10.9-3.8,16.5c2.3,3.6,6.2,5.7,10.2,5.7c2.2,0,4.4-0.6,6.3-1.8c5.6-3.5,7.3-10.9,3.8-16.5
			C433.1,249.6,425.7,247.9,420.1,251.4z" fill="white"/>
		<path d="M307.1,321.7c-5.6,3.5-7.4,10.9-3.8,16.5c2.3,3.7,6.2,5.7,10.2,5.7c2.2,0,4.4-0.6,6.3-1.8c5.6-3.5,7.3-10.9,3.8-16.5
			C320.1,320,312.7,318.2,307.1,321.7z" fill="white"/>
		<path d="M269.4,345.2c-5.6,3.5-7.3,10.9-3.8,16.5c2.3,3.7,6.2,5.7,10.2,5.7c2.2,0,4.4-0.6,6.3-1.8c5.6-3.5,7.3-10.9,3.8-16.5
			C282.4,343.4,275.1,341.7,269.4,345.2z" fill="white"/>
		<path d="M344.8,298.3c-5.6,3.5-7.4,10.9-3.9,16.5c2.3,3.7,6.2,5.7,10.2,5.7c2.2,0,4.4-0.6,6.3-1.8c5.6-3.5,7.3-10.9,3.8-16.5
			C357.8,296.5,350.4,294.8,344.8,298.3z" fill="white"/>
		<path d="M382.4,274.9c-5.6,3.5-7.3,10.9-3.8,16.5c2.3,3.6,6.2,5.7,10.2,5.7c2.2,0,4.4-0.6,6.3-1.8c5.6-3.5,7.3-10.9,3.8-16.5
			C395.4,273.1,388.1,271.4,382.4,274.9z" fill="white"/>
		<path d="M229.6,370.3c-2.2,2.2-3.5,5.3-3.5,8.5s1.3,6.3,3.5,8.5s5.3,3.5,8.5,3.5c3.2,0,6.3-1.3,8.5-3.5s3.5-5.3,3.5-8.5
			s-1.3-6.3-3.5-8.5s-5.3-3.5-8.5-3.5S231.9,368.1,229.6,370.3z" fill="white"/>
		<path d="M190.2,349c-3.5,5.6-1.8,13,3.8,16.5c2,1.2,4.2,1.8,6.3,1.8c4,0,7.9-2,10.2-5.7c3.5-5.6,1.8-13-3.9-16.5
			C201.1,341.7,193.7,343.4,190.2,349z" fill="white"/>
		<path d="M39.6,255.2c-3.5,5.6-1.8,13,3.8,16.5c2,1.2,4.2,1.8,6.3,1.8c4,0,7.9-2,10.2-5.7c3.5-5.6,1.8-13-3.8-16.5
			S43.1,249.6,39.6,255.2z" fill="white"/>
		<path d="M152.6,325.6c-3.5,5.6-1.8,13,3.8,16.5c2,1.2,4.2,1.8,6.3,1.8c4,0,7.9-2,10.2-5.7c3.5-5.6,1.8-13-3.8-16.5
			C163.5,318.2,156.1,320,152.6,325.6z" fill="white"/>
		<path d="M114.9,302.1c-3.5,5.6-1.8,13,3.8,16.5c2,1.2,4.2,1.8,6.3,1.8c4,0,7.9-2,10.2-5.7c3.5-5.6,1.8-13-3.9-16.5
			C125.8,294.8,118.4,296.5,114.9,302.1z" fill="white"/>
		<path d="M77.2,278.7c-3.5,5.6-1.8,13,3.8,16.5c2,1.2,4.2,1.8,6.3,1.8c4,0,7.9-2,10.2-5.7c3.5-5.6,1.8-13-3.8-16.5
			C88.1,271.4,80.7,273.1,77.2,278.7z" fill="white"/>
		<path d="M12.1,250.1c3.2,0,6.3-1.3,8.5-3.5s3.5-5.3,3.5-8.5c0-3.2-1.3-6.3-3.5-8.5s-5.3-3.5-8.5-3.5s-6.3,1.3-8.5,3.5
			s-3.5,5.3-3.5,8.5c0,3.2,1.3,6.3,3.5,8.5C5.9,248.9,8.9,250.1,12.1,250.1z" fill="white"/>
		<path d="M457.8,308.3L238.1,445.1L18.4,308.3c-5.6-3.5-13-1.8-16.5,3.8c-3.5,5.6-1.8,13,3.8,16.5l226,140.7
			c1.9,1.2,4.1,1.8,6.3,1.8s4.4-0.6,6.3-1.8l226-140.7c5.6-3.5,7.3-10.9,3.8-16.5C470.8,306.5,463.4,304.8,457.8,308.3z" fill="white"/>
	</g>
</g>
</svg>