<svg xmlns="http://www.w3.org/2000/svg" width="70" height="57" viewBox="0 0 70 57" fill="none">
<path d="M36.3175 23.2693L32.679 17.3811L22.8779 34.904L31.8736 27.5083L35.7591 31.6803L37.8922 29.4719L46.363 35.2905L38.6976 22.2514L36.5619 23.6533L36.3175 23.2693Z" fill="url(#paint0_linear_3473_4613)"/>
<path d="M30.1908 0V9.39276L9.94008 28.5055L5.27238 23.8336L30.1908 0Z" fill="url(#paint1_linear_3473_4613)"/>
<path d="M5.27238 23.8336L0 28.8792L30.1908 56.8256V47.6647L9.94008 28.5055" fill="url(#paint2_linear_3473_4613)"/>
<path d="M39.8092 0.0927642V9.48553L60.0599 28.5983L64.7276 23.9264L39.8092 0.0927642Z" fill="url(#paint3_linear_3473_4613)"/>
<path d="M64.7276 23.9264L70 28.9745L39.8092 56.9183V47.7601L60.0599 28.5983" fill="url(#paint4_linear_3473_4613)"/>
<defs>
<linearGradient id="paint0_linear_3473_4613" x1="2.98346" y1="42.9385" x2="70.8428" y2="24.4531" gradientUnits="userSpaceOnUse">
<stop offset="0.36" stop-color="#08B6E5"/>
<stop offset="0.67" stop-color="#0C81C3"/>
</linearGradient>
<linearGradient id="paint1_linear_3473_4613" x1="0" y1="28.4592" x2="70" y2="28.4592" gradientUnits="userSpaceOnUse">
<stop stop-color="#077CC1"/>
<stop offset="1" stop-color="#34BBED"/>
</linearGradient>
<linearGradient id="paint2_linear_3473_4613" x1="12.3319" y1="28.4569" x2="82.3379" y2="28.4569" gradientUnits="userSpaceOnUse">
<stop stop-color="#0FBBEE"/>
<stop offset="0.44" stop-color="#119ED9"/>
<stop offset="1" stop-color="#1373BA"/>
</linearGradient>
<linearGradient id="paint3_linear_3473_4613" x1="69.9928" y1="28.4592" x2="-0.00722647" y2="28.4592" gradientUnits="userSpaceOnUse">
<stop stop-color="#077CC1"/>
<stop offset="1" stop-color="#34BBED"/>
</linearGradient>
<linearGradient id="paint4_linear_3473_4613" x1="57.6622" y1="28.4569" x2="-12.3378" y2="28.4569" gradientUnits="userSpaceOnUse">
<stop stop-color="#0FBBEE"/>
<stop offset="0.44" stop-color="#119ED9"/>
<stop offset="1" stop-color="#1373BA"/>
</linearGradient>
</defs>
</svg>